<svg xmlns="http://www.w3.org/2000/svg" xmlns:v="https://svgstorm.com"
viewBox = "0 0 199 274"
width="199"
height="274">
<g fill="None" fill-opacity="0.0" stroke="#FAFAFA" stroke-opacity="1.00" stroke-width="0.3"><path d="
M 0.00 135.00 
C 11.70 130.76 23.63 126.83 36.00 124.00
C 45.26 121.88 53.83 117.17 63.07 115.07 C 72.32 112.98 81.70 107.39 91.01 106.01 C 100.32 104.63 108.91 104.22 118.22 100.22 C 127.53 96.22 136.79 94.32 146.02 91.02 C 155.25 87.73 164.18 84.21 173.22 81.22 C 182.27 78.24 190.88 73.93 199.00 72.00
L 199.00 0.00
L 22.00 0.00
C 27.34 3.95 37.04 1.55 45.00 2.00 C 52.96 2.45 61.72 1.86 70.00 2.00 C 78.28 2.14 87.57 2.04 96.00 2.00 C 104.43 1.96 112.46 2.27 121.00 2.00 C 129.54 1.73 137.21 2.67 146.00 2.00 C 154.79 1.33 162.82 3.46 172.00 2.00 C 181.18 0.54 188.14 3.37 186.00 13.00 C 183.86 22.63 187.65 29.78 186.00 38.00 C 184.35 46.22 188.60 56.74 185.22 63.22 C 181.85 69.70 171.54 66.08 166.98 69.98 C 162.41 73.88 151.56 73.96 151.00 74.00
C 149.41 74.56 147.42 75.05 146.00 76.00
C 145.73 76.18 145.23 76.74 145.00 77.00
C 143.02 79.23 139.75 79.10 137.00 80.00
C 143.71 69.87 158.85 64.65 170.00 58.00
C 168.96 54.54 172.62 46.62 167.00 47.00
C 171.12 42.53 168.89 39.14 170.00 32.00 C 171.11 24.86 168.58 20.53 161.00 22.00 C 153.42 23.47 149.27 20.90 142.00 22.00
C 141.23 33.49 163.50 22.17 166.00 29.00
C 167.64 35.58 167.14 49.39 163.00 53.00
C 146.39 67.48 127.50 73.63 106.93 80.93 C 86.35 88.22 62.78 97.04 40.00 98.00
C 39.40 98.03 37.30 99.96 36.00 99.00
C 36.00 91.33 36.00 83.67 36.00 76.00
C 34.08 76.38 31.94 75.71 30.00 76.00
C 30.00 85.33 30.00 94.67 30.00 104.00
C 36.67 104.00 43.33 104.00 50.00 104.00
C 50.50 104.00 51.50 103.97 52.00 104.00
C 57.03 102.48 63.62 100.59 69.00 102.00
C 64.11 106.54 54.95 109.76 49.00 109.00
C 42.05 111.57 35.01 113.66 28.00 116.00
C 25.54 117.37 21.76 121.90 17.00 120.00
C 17.25 106.54 16.67 92.39 17.00 79.00 C 17.33 65.61 16.36 51.13 17.00 38.00 C 17.64 24.87 14.29 10.56 20.00 0.00
L 0.00 0.00
L 0.00 135.00 Z"/>
</g>
<g fill="None" fill-opacity="0.0" stroke="#E1D5E8" stroke-opacity="1.00" stroke-width="0.3"><path d="
M 28.00 116.00 
C 24.72 117.09 21.45 118.45 18.00 119.00
C 18.00 80.67 18.00 42.33 18.00 4.00
C 20.90 -0.14 32.58 4.20 38.00 3.00 C 43.42 1.80 52.73 3.52 59.00 3.00 C 65.27 2.48 73.36 3.20 80.00 3.00 C 86.64 2.80 94.24 3.01 101.00 3.00 C 107.76 2.99 115.28 2.82 122.00 3.00 C 128.72 3.18 136.51 2.52 143.00 3.00 C 149.49 3.48 158.08 1.89 164.00 3.00 C 169.92 4.11 180.05 0.05 184.00 4.00
C 187.76 7.76 184.17 18.38 185.00 24.00 C 185.83 29.62 185.07 39.06 185.00 45.00 C 184.93 50.94 187.26 61.22 182.00 64.00
C 173.13 68.68 160.63 70.60 151.00 74.00
C 151.56 73.96 162.41 73.88 166.98 69.98 C 171.54 66.08 181.85 69.70 185.22 63.22 C 188.60 56.74 184.35 46.22 186.00 38.00 C 187.65 29.78 183.86 22.63 186.00 13.00 C 188.14 3.37 181.18 0.54 172.00 2.00 C 162.82 3.46 154.79 1.33 146.00 2.00 C 137.21 2.67 129.54 1.73 121.00 2.00 C 112.46 2.27 104.43 1.96 96.00 2.00 C 87.57 2.04 78.28 2.14 70.00 2.00 C 61.72 1.86 52.96 2.45 45.00 2.00 C 37.04 1.55 27.34 3.95 22.00 0.00
L 20.00 0.00
C 14.29 10.56 17.64 24.87 17.00 38.00 C 16.36 51.13 17.33 65.61 17.00 79.00 C 16.67 92.39 17.25 106.54 17.00 120.00
C 21.76 121.90 25.54 117.37 28.00 116.00 Z"/>
</g>
<g fill="None" fill-opacity="0.0" stroke="#9583A4" stroke-opacity="1.00" stroke-width="0.3"><path d="
M 18.00 4.00 
C 73.33 4.00 128.67 4.00 184.00 4.00
C 180.05 0.05 169.92 4.11 164.00 3.00 C 158.08 1.89 149.49 3.48 143.00 3.00 C 136.51 2.52 128.72 3.18 122.00 3.00 C 115.28 2.82 107.76 2.99 101.00 3.00 C 94.24 3.01 86.64 2.80 80.00 3.00 C 73.36 3.20 65.27 2.48 59.00 3.00 C 52.73 3.52 43.42 1.80 38.00 3.00 C 32.58 4.20 20.90 -0.14 18.00 4.00 Z"/>
</g>
<g fill="None" fill-opacity="0.0" stroke="#613F79" stroke-opacity="1.00" stroke-width="0.3"><path d="
M 28.00 116.00 
C 35.01 113.66 42.05 111.57 49.00 109.00
C 51.28 108.16 53.68 107.74 56.00 107.00
C 56.65 106.54 57.64 105.84 58.00 105.00
C 53.39 104.28 49.49 106.16 45.00 106.00
C 41.58 106.39 38.42 106.44 35.00 107.00
C 33.27 107.28 30.41 108.85 28.00 108.00
C 27.53 94.37 28.62 82.83 28.00 69.00 C 27.38 55.17 29.20 44.60 28.00 30.00 C 26.80 15.40 44.79 20.27 57.00 20.00 C 69.21 19.73 83.39 20.03 96.00 20.00 C 108.61 19.97 122.25 19.80 135.00 20.00 C 147.75 20.20 162.06 19.02 174.00 21.00
C 178.34 25.34 173.33 35.78 175.00 42.00 C 176.67 48.22 175.39 55.66 170.00 59.00
C 161.69 64.14 153.28 68.87 145.00 74.00
C 143.41 76.53 145.39 74.76 146.00 76.00
C 147.42 75.05 149.41 74.56 151.00 74.00
C 160.63 70.60 173.13 68.68 182.00 64.00
C 188.46 59.19 182.15 43.17 184.00 35.00 C 185.85 26.83 182.61 12.71 184.00 4.00
C 128.67 4.00 73.33 4.00 18.00 4.00
C 18.00 42.33 18.00 80.67 18.00 119.00
C 21.45 118.45 24.72 117.09 28.00 116.00
M 114.00 14.00 
C 110.89 15.45 102.11 13.43 99.00 14.00 C 95.89 14.57 86.21 15.20 87.00 11.00
C 87.99 5.76 100.92 11.06 104.00 9.00 C 107.08 6.94 121.35 10.58 114.00 14.00 Z"/>
</g>
<g fill="None" fill-opacity="0.0" stroke="#B4A4BE" stroke-opacity="1.00" stroke-width="0.3"><path d="
M 182.00 64.00 
C 187.26 61.22 184.93 50.94 185.00 45.00 C 185.07 39.06 185.83 29.62 185.00 24.00 C 184.17 18.38 187.76 7.76 184.00 4.00
C 182.61 12.71 185.85 26.83 184.00 35.00 C 182.15 43.17 188.46 59.19 182.00 64.00 Z"/>
</g>
<g fill="None" fill-opacity="0.0" stroke="#9D8AAE" stroke-opacity="1.00" stroke-width="0.3"><path d="
M 87.00 11.00 
C 88.53 7.85 96.59 10.83 100.00 10.00 C 103.41 9.17 111.20 10.62 115.00 10.00
C 115.41 11.56 114.54 12.69 114.00 14.00
C 121.35 10.58 107.08 6.94 104.00 9.00 C 100.92 11.06 87.99 5.76 87.00 11.00 Z"/>
</g>
<g fill="None" fill-opacity="0.0" stroke="#ECE3F2" stroke-opacity="1.00" stroke-width="0.3"><path d="
M 87.00 11.00 
C 86.21 15.20 95.89 14.57 99.00 14.00 C 102.11 13.43 110.89 15.45 114.00 14.00
C 114.54 12.69 115.41 11.56 115.00 10.00
C 111.20 10.62 103.41 9.17 100.00 10.00 C 96.59 10.83 88.53 7.85 87.00 11.00 Z"/>
</g>
<g fill="None" fill-opacity="0.0" stroke="#AA94B3" stroke-opacity="1.00" stroke-width="0.3"><path d="
M 35.00 107.00 
C 33.00 106.99 31.00 107.01 29.00 107.00
C 29.00 78.33 29.00 49.67 29.00 21.00
C 77.33 21.00 125.67 21.00 174.00 21.00
C 162.06 19.02 147.75 20.20 135.00 20.00 C 122.25 19.80 108.61 19.97 96.00 20.00 C 83.39 20.03 69.21 19.73 57.00 20.00 C 44.79 20.27 26.80 15.40 28.00 30.00 C 29.20 44.60 27.38 55.17 28.00 69.00 C 28.62 82.83 27.53 94.37 28.00 108.00
C 30.41 108.85 33.27 107.28 35.00 107.00 Z"/>
</g>
<g fill="None" fill-opacity="0.0" stroke="#EEE5F2" stroke-opacity="1.00" stroke-width="0.3"><path d="
M 35.00 107.00 
C 38.42 106.44 41.58 106.39 45.00 106.00
C 46.22 105.74 48.82 104.34 50.00 104.00
C 43.33 104.00 36.67 104.00 30.00 104.00
C 30.00 94.67 30.00 85.33 30.00 76.00
C 31.94 75.71 34.08 76.38 36.00 76.00
C 36.00 75.50 36.00 74.50 36.00 74.00
C 34.08 73.62 31.94 74.29 30.00 74.00
C 30.00 65.00 30.00 56.00 30.00 47.00
C 32.00 47.00 34.00 47.00 36.00 47.00
C 36.00 46.00 36.00 45.00 36.00 44.00
C 34.00 44.00 32.00 44.00 30.00 44.00
C 30.00 36.67 30.00 29.33 30.00 22.00
C 36.67 22.00 43.33 22.00 50.00 22.00
C 52.14 31.16 39.76 24.48 36.00 28.00
C 43.22 24.79 53.99 29.43 62.00 28.00 C 70.01 26.57 79.64 28.60 88.00 28.00 C 96.36 27.40 105.50 28.18 114.00 28.00 C 122.50 27.82 131.47 27.88 140.00 28.00 C 148.53 28.12 158.30 27.07 166.00 29.00
C 163.50 22.17 141.23 33.49 142.00 22.00
C 149.27 20.90 153.42 23.47 161.00 22.00 C 168.58 20.53 171.11 24.86 170.00 32.00 C 168.89 39.14 171.12 42.53 167.00 47.00
C 172.62 46.62 168.96 54.54 170.00 58.00
C 158.85 64.65 143.71 69.87 137.00 80.00
C 139.75 79.10 143.02 79.23 145.00 77.00
C 143.41 77.50 141.60 77.36 140.00 78.00
C 140.98 75.99 143.36 75.36 145.00 74.00
C 153.28 68.87 161.69 64.14 170.00 59.00
C 171.26 58.02 172.07 56.21 174.00 56.00
C 174.00 44.33 174.00 32.67 174.00 21.00
C 125.67 21.00 77.33 21.00 29.00 21.00
C 29.00 49.67 29.00 78.33 29.00 107.00
C 31.00 107.01 33.00 106.99 35.00 107.00
M 80.00 22.00 
C 81.55 29.17 74.05 26.75 69.00 27.00 C 63.95 27.25 57.20 26.82 52.00 27.00
C 50.45 19.83 57.95 22.25 63.00 22.00 C 68.05 21.75 74.80 22.18 80.00 22.00
M 110.00 22.00 
C 111.55 29.17 104.05 26.75 99.00 27.00 C 93.95 27.25 87.20 26.82 82.00 27.00
C 80.45 19.83 87.95 22.25 93.00 22.00 C 98.05 21.75 104.80 22.18 110.00 22.00
M 140.00 22.00 
C 141.55 29.17 134.05 26.75 129.00 27.00 C 123.96 27.25 117.20 26.82 112.00 27.00
C 110.45 19.83 117.95 22.25 123.00 22.00 C 128.05 21.75 134.80 22.18 140.00 22.00 Z"/>
</g>
<g fill="None" fill-opacity="0.0" stroke="#846A96" stroke-opacity="1.00" stroke-width="0.3"><path d="
M 170.00 59.00 
C 175.39 55.66 176.67 48.22 175.00 42.00 C 173.33 35.78 178.34 25.34 174.00 21.00
C 174.00 32.67 174.00 44.33 174.00 56.00
C 172.07 56.21 171.26 58.02 170.00 59.00 Z"/>
</g>
<g fill="None" fill-opacity="0.0" stroke="#FEFDFE" stroke-opacity="1.00" stroke-width="0.3"><path d="
M 36.00 44.00 
C 36.00 39.33 36.00 34.67 36.00 30.00
C 36.00 29.50 35.77 28.35 36.00 28.00
C 39.76 24.48 52.14 31.16 50.00 22.00
C 43.33 22.00 36.67 22.00 30.00 22.00
C 30.00 29.33 30.00 36.67 30.00 44.00
C 32.00 44.00 34.00 44.00 36.00 44.00 Z"/>
</g>
<g fill="None" fill-opacity="0.0" stroke="#FEFDFE" stroke-opacity="1.00" stroke-width="0.3"><path d="
M 80.00 22.00 
C 74.80 22.18 68.05 21.75 63.00 22.00 C 57.95 22.25 50.45 19.83 52.00 27.00
C 57.20 26.82 63.95 27.25 69.00 27.00 C 74.05 26.75 81.55 29.17 80.00 22.00 Z"/>
</g>
<g fill="None" fill-opacity="0.0" stroke="#FEFDFE" stroke-opacity="1.00" stroke-width="0.3"><path d="
M 110.00 22.00 
C 104.80 22.18 98.05 21.75 93.00 22.00 C 87.95 22.25 80.45 19.83 82.00 27.00
C 87.20 26.82 93.95 27.25 99.00 27.00 C 104.05 26.75 111.55 29.17 110.00 22.00 Z"/>
</g>
<g fill="None" fill-opacity="0.0" stroke="#FEFDFE" stroke-opacity="1.00" stroke-width="0.3"><path d="
M 140.00 22.00 
C 134.80 22.18 128.05 21.75 123.00 22.00 C 117.95 22.25 110.45 19.83 112.00 27.00
C 117.20 26.82 123.96 27.25 129.00 27.00 C 134.05 26.75 141.55 29.17 140.00 22.00 Z"/>
</g>
<g fill="None" fill-opacity="0.0" stroke="#AA91B4" stroke-opacity="1.00" stroke-width="0.3"><path d="
M 36.00 30.00 
C 36.34 30.23 37.00 30.00 37.00 30.00
C 44.27 24.62 58.46 30.72 68.00 29.00 C 77.54 27.28 90.77 29.83 101.00 29.00 C 111.23 28.17 122.45 29.42 133.00 29.00 C 143.55 28.58 155.34 29.31 166.00 29.00
C 158.30 27.07 148.53 28.12 140.00 28.00 C 131.47 27.88 122.50 27.82 114.00 28.00 C 105.50 28.18 96.36 27.40 88.00 28.00 C 79.64 28.60 70.01 26.57 62.00 28.00 C 53.99 29.43 43.22 24.79 36.00 28.00
C 35.77 28.35 36.00 29.50 36.00 30.00 Z"/>
</g>
<g fill="None" fill-opacity="0.0" stroke="#502B5C" stroke-opacity="1.00" stroke-width="0.3"><path d="
M 37.00 30.00 
C 37.23 30.16 37.00 31.50 37.00 32.00
C 48.01 25.91 64.52 31.47 78.00 30.00 C 91.48 28.53 107.00 30.75 121.00 30.00 C 135.00 29.25 150.83 30.56 165.00 30.00
C 163.98 37.54 167.23 46.53 163.00 53.00
C 167.14 49.39 167.64 35.58 166.00 29.00
C 155.34 29.31 143.55 28.58 133.00 29.00 C 122.45 29.42 111.23 28.17 101.00 29.00 C 90.77 29.83 77.54 27.28 68.00 29.00 C 58.46 30.72 44.27 24.62 37.00 30.00 Z"/>
</g>
<g fill="None" fill-opacity="0.0" stroke="#896F93" stroke-opacity="1.00" stroke-width="0.3"><path d="
M 36.00 44.00 
C 36.00 45.00 36.00 46.00 36.00 47.00
C 36.00 56.00 36.00 65.00 36.00 74.00
C 36.00 74.50 36.00 75.50 36.00 76.00
C 36.00 83.67 36.00 91.33 36.00 99.00
C 37.30 99.96 39.40 98.03 40.00 98.00
C 39.07 97.74 37.94 98.20 37.00 98.00
C 37.00 76.00 37.00 54.00 37.00 32.00
C 37.00 31.50 37.23 30.16 37.00 30.00
C 37.00 30.00 36.34 30.23 36.00 30.00
C 36.00 34.67 36.00 39.33 36.00 44.00 Z"/>
</g>
<g fill="None" fill-opacity="0.0" stroke="#400D4E" stroke-opacity="1.00" stroke-width="0.3"><path d="
M 37.00 32.00 
C 37.00 54.00 37.00 76.00 37.00 98.00
C 37.94 98.20 39.07 97.74 40.00 98.00
C 62.78 97.04 86.35 88.22 106.93 80.93 C 127.50 73.63 146.39 67.48 163.00 53.00
C 167.23 46.53 163.98 37.54 165.00 30.00
C 150.83 30.56 135.00 29.25 121.00 30.00 C 107.00 30.75 91.48 28.53 78.00 30.00 C 64.52 31.47 48.01 25.91 37.00 32.00 Z"/>
</g>
<g fill="None" fill-opacity="0.0" stroke="#FEFDFE" stroke-opacity="1.00" stroke-width="0.3"><path d="
M 36.00 74.00 
C 36.00 65.00 36.00 56.00 36.00 47.00
C 34.00 47.00 32.00 47.00 30.00 47.00
C 30.00 56.00 30.00 65.00 30.00 74.00
C 31.94 74.29 34.08 73.62 36.00 74.00 Z"/>
</g>
<g fill="None" fill-opacity="0.0" stroke="#58C585" stroke-opacity="1.00" stroke-width="0.3"><path d="
M 36.00 124.00 
C 24.74 128.10 12.97 133.01 1.00 136.00
C 2.82 140.90 2.51 150.80 10.00 150.00
C 25.53 144.48 41.31 139.61 57.07 134.07 C 72.83 128.54 89.65 124.40 102.97 115.97 C 116.29 107.55 133.87 104.12 149.22 98.22 C 164.58 92.32 182.43 86.38 199.00 84.00
L 199.00 72.00
C 190.88 73.93 182.27 78.24 173.22 81.22 C 164.18 84.21 155.25 87.73 146.02 91.02 C 136.79 94.32 127.53 96.22 118.22 100.22 C 108.91 104.22 100.32 104.63 91.01 106.01 C 81.70 107.39 72.32 112.98 63.07 115.07 C 53.83 117.17 45.26 121.88 36.00 124.00 Z"/>
</g>
<g fill="None" fill-opacity="0.0" stroke="#90849A" stroke-opacity="1.00" stroke-width="0.3"><path d="
M 145.00 77.00 
C 145.23 76.74 145.73 76.18 146.00 76.00
C 145.39 74.76 143.41 76.53 145.00 74.00
C 143.36 75.36 140.98 75.99 140.00 78.00
C 141.60 77.36 143.41 77.50 145.00 77.00 Z"/>
</g>
<g fill="None" fill-opacity="0.0" stroke="#F8FBF9" stroke-opacity="1.00" stroke-width="0.3"><path d="
M 10.00 150.00 
C 2.79 152.56 2.58 148.92 0.00 142.00
L 0.00 186.00
C 2.30 185.10 4.58 184.62 7.00 184.00
C 15.19 181.91 23.04 178.68 31.08 176.08 C 39.12 173.48 46.91 170.38 55.07 168.07 C 63.24 165.77 71.01 162.88 79.02 160.02 C 87.04 157.17 94.73 154.21 103.02 152.02 C 111.32 149.84 118.51 145.06 126.74 142.74 C 134.98 140.43 142.18 136.58 150.74 134.74 C 159.31 132.90 166.93 129.80 169.92 121.92 C 172.91 114.04 186.54 110.92 193.22 116.78 C 199.91 122.63 179.82 120.55 180.01 130.01 C 180.20 139.47 191.12 141.01 199.00 136.00
L 199.00 84.00
C 182.43 86.38 164.58 92.32 149.22 98.22 C 133.87 104.12 116.29 107.55 102.97 115.97 C 89.65 124.40 72.83 128.54 57.07 134.07 C 41.31 139.61 25.53 144.48 10.00 150.00 Z"/>
</g>
<g fill="None" fill-opacity="0.0" stroke="#E8DDEE" stroke-opacity="1.00" stroke-width="0.3"><path d="
M 52.00 104.00 
C 56.69 104.33 62.02 101.46 66.00 104.00
C 62.53 104.53 59.36 106.03 56.00 107.00
C 53.68 107.74 51.28 108.16 49.00 109.00
C 54.95 109.76 64.11 106.54 69.00 102.00
C 63.62 100.59 57.03 102.48 52.00 104.00 Z"/>
</g>
<g fill="None" fill-opacity="0.0" stroke="#9C8DA8" stroke-opacity="1.00" stroke-width="0.3"><path d="
M 52.00 104.00 
C 51.50 103.97 50.50 104.00 50.00 104.00
C 48.82 104.34 46.22 105.74 45.00 106.00
C 49.49 106.16 53.39 104.28 58.00 105.00
C 57.64 105.84 56.65 106.54 56.00 107.00
C 59.36 106.03 62.53 104.53 66.00 104.00
C 62.02 101.46 56.69 104.33 52.00 104.00 Z"/>
</g>
<g fill="None" fill-opacity="0.0" stroke="#57C584" stroke-opacity="1.00" stroke-width="0.3"><path d="
M 7.00 184.00 
C 5.20 184.68 3.27 186.73 1.00 187.00
C 3.47 191.32 1.89 200.39 8.00 201.00
C 21.37 199.67 33.28 191.91 46.02 188.02 C 58.77 184.14 71.49 179.68 84.22 175.22 C 96.95 170.76 110.33 166.72 123.07 162.07 C 135.82 157.43 148.25 153.93 161.07 149.07 C 173.89 144.22 187.72 155.49 199.00 143.00
L 199.00 136.00
C 191.12 141.01 180.20 139.47 180.01 130.01 C 179.82 120.55 199.91 122.63 193.22 116.78 C 186.54 110.92 172.91 114.04 169.92 121.92 C 166.93 129.80 159.31 132.90 150.74 134.74 C 142.18 136.58 134.98 140.43 126.74 142.74 C 118.51 145.06 111.32 149.84 103.02 152.02 C 94.73 154.21 87.04 157.17 79.02 160.02 C 71.01 162.88 63.24 165.77 55.07 168.07 C 46.91 170.38 39.12 173.48 31.08 176.08 C 23.04 178.68 15.19 181.91 7.00 184.00 Z"/>
</g>
<g fill="None" fill-opacity="0.0" stroke="#CCF2DB" stroke-opacity="1.00" stroke-width="0.3"><path d="
M 0.00 135.00 
L 0.00 142.00
C 2.58 148.92 2.79 152.56 10.00 150.00
C 2.51 150.80 2.82 140.90 1.00 136.00
C 12.97 133.01 24.74 128.10 36.00 124.00
C 23.63 126.83 11.70 130.76 0.00 135.00 Z"/>
</g>
<g fill="None" fill-opacity="0.0" stroke="#F9F8FA" stroke-opacity="1.00" stroke-width="0.3"><path d="
M 8.00 201.00 
C 2.03 201.59 3.60 195.20 0.00 191.00
L 0.00 274.00
L 199.00 274.00
L 199.00 143.00
C 187.72 155.49 173.89 144.22 161.07 149.07 C 148.25 153.93 135.82 157.43 123.07 162.07 C 110.33 166.72 96.95 170.76 84.22 175.22 C 71.49 179.68 58.77 184.14 46.02 188.02 C 33.28 191.91 21.37 199.67 8.00 201.00
M 185.00 267.00 
C 184.01 271.63 171.96 268.27 167.00 269.00 C 162.04 269.73 152.08 268.68 146.00 269.00 C 139.92 269.32 131.58 268.87 125.00 269.00 C 118.42 269.13 110.81 268.98 104.00 269.00 C 97.19 269.02 89.92 269.08 83.00 269.00 C 76.08 268.92 68.96 269.24 62.00 269.00 C 55.04 268.76 47.99 269.55 41.00 269.00 C 34.01 268.45 27.98 269.98 21.26 269.60 C 14.53 269.22 17.41 258.74 17.00 253.00 C 16.59 247.26 17.34 238.45 17.00 232.00 C 16.66 225.55 17.50 217.80 17.00 211.00 C 16.50 204.20 26.82 205.15 28.00 205.00
C 37.88 201.26 48.11 198.65 58.00 195.00
C 59.66 194.39 61.67 192.44 64.00 193.00
C 63.40 194.82 61.44 195.15 60.00 196.00
C 51.20 201.58 36.94 206.27 30.00 214.00
C 24.77 222.18 30.86 233.00 29.00 243.00 C 27.14 253.00 43.46 249.93 52.00 250.00 C 60.54 250.07 73.61 249.97 83.00 250.00 C 92.39 250.03 103.23 249.98 113.00 250.00 C 122.77 250.02 133.01 249.99 143.00 250.00 C 152.99 250.01 163.92 249.99 174.00 250.00
C 177.36 245.20 172.55 235.20 174.00 229.00 C 175.45 222.80 173.33 213.80 174.00 207.00 C 174.67 200.20 173.65 192.06 174.00 185.00 C 174.35 177.94 173.74 170.13 174.00 163.00
C 166.04 164.10 158.30 166.18 150.00 166.00
C 146.85 166.38 142.67 167.53 139.00 168.00
C 138.37 168.08 135.53 170.48 135.00 168.00
C 139.54 167.62 140.68 162.13 146.00 164.00
C 146.49 164.06 147.54 164.13 148.00 164.00
C 158.92 160.98 169.75 154.61 181.00 153.00
C 181.75 152.89 183.58 151.10 185.00 152.00
C 185.00 190.33 185.00 228.67 185.00 267.00
M 166.00 242.00 
C 161.31 246.87 148.16 241.46 141.00 243.00 C 133.84 244.54 123.00 242.30 115.00 243.00 C 107.00 243.70 97.41 242.68 89.00 243.00 C 80.59 243.32 71.65 242.84 63.00 243.00 C 54.35 243.16 44.74 242.88 36.00 243.00
C 36.66 235.50 34.67 226.67 37.00 220.00
C 41.78 211.05 55.21 210.89 62.70 203.70 C 70.18 196.50 83.34 195.30 93.07 191.07 C 102.80 186.84 113.85 184.45 124.22 180.22 C 134.60 176.00 148.73 174.84 160.00 173.00
C 162.09 172.66 163.84 172.14 166.00 172.00
C 166.00 195.33 166.00 218.67 166.00 242.00 Z"/>
</g>
<g fill="None" fill-opacity="0.0" stroke="#B3A3BD" stroke-opacity="1.00" stroke-width="0.3"><path d="
M 181.00 153.00 
C 181.96 153.19 183.03 152.85 184.00 153.00
C 184.00 191.00 184.00 229.00 184.00 267.00
C 184.32 266.76 185.00 267.00 185.00 267.00
C 185.00 228.67 185.00 190.33 185.00 152.00
C 183.58 151.10 181.75 152.89 181.00 153.00 Z"/>
</g>
<g fill="None" fill-opacity="0.0" stroke="#603E79" stroke-opacity="1.00" stroke-width="0.3"><path d="
M 148.00 164.00 
C 147.37 164.86 146.35 164.86 146.00 166.00
C 147.33 166.00 148.67 166.00 150.00 166.00
C 158.30 166.18 166.04 164.10 174.00 163.00
C 173.74 170.13 174.35 177.94 174.00 185.00 C 173.65 192.06 174.67 200.20 174.00 207.00 C 173.33 213.80 175.45 222.80 174.00 229.00 C 172.55 235.20 177.36 245.20 174.00 250.00
C 171.10 254.15 159.43 249.79 154.00 251.00 C 148.57 252.21 139.29 250.45 133.00 251.00 C 126.71 251.55 118.68 250.75 112.00 251.00 C 105.32 251.25 97.85 250.89 91.00 251.00 C 84.15 251.11 76.93 250.95 70.00 251.00 C 63.07 251.05 55.96 250.97 49.00 251.00 C 42.04 251.03 34.97 250.98 28.00 251.00
C 29.30 238.99 25.38 224.43 30.00 214.00
C 36.94 206.27 51.20 201.58 60.00 196.00
C 59.83 195.99 58.76 195.01 58.00 195.00
C 48.11 198.65 37.88 201.26 28.00 205.00
C 26.14 205.70 20.18 206.68 19.00 208.00
C 19.00 227.67 19.00 247.33 19.00 267.00
C 74.00 267.00 129.00 267.00 184.00 267.00
C 184.00 229.00 184.00 191.00 184.00 153.00
C 183.03 152.85 181.96 153.19 181.00 153.00
C 169.75 154.61 158.92 160.98 148.00 164.00 Z"/>
</g>
<g fill="None" fill-opacity="0.0" stroke="#CFC6D7" stroke-opacity="1.00" stroke-width="0.3"><path d="
M 139.00 168.00 
C 140.95 167.21 144.11 165.28 146.00 164.00
C 140.68 162.13 139.54 167.62 135.00 168.00
C 135.53 170.48 138.37 168.08 139.00 168.00 Z"/>
</g>
<g fill="None" fill-opacity="0.0" stroke="#7D6D8A" stroke-opacity="1.00" stroke-width="0.3"><path d="
M 139.00 168.00 
C 142.67 167.53 146.85 166.38 150.00 166.00
C 148.67 166.00 147.33 166.00 146.00 166.00
C 146.35 164.86 147.37 164.86 148.00 164.00
C 147.54 164.13 146.49 164.06 146.00 164.00
C 144.11 165.28 140.95 167.21 139.00 168.00 Z"/>
</g>
<g fill="None" fill-opacity="0.0" stroke="#5C3A65" stroke-opacity="1.00" stroke-width="0.3"><path d="
M 160.00 173.00 
C 160.97 173.08 163.34 174.96 165.00 174.00
C 165.00 196.67 165.00 219.33 165.00 242.00
C 165.50 242.00 166.00 242.00 166.00 242.00
C 166.00 218.67 166.00 195.33 166.00 172.00
C 163.84 172.14 162.09 172.66 160.00 173.00 Z"/>
</g>
<g fill="None" fill-opacity="0.0" stroke="#400D4E" stroke-opacity="1.00" stroke-width="0.3"><path d="
M 37.00 220.00 
C 34.71 226.53 38.72 235.27 37.00 242.00
C 79.67 242.00 122.33 242.00 165.00 242.00
C 165.00 219.33 165.00 196.67 165.00 174.00
C 163.34 174.96 160.97 173.08 160.00 173.00
C 148.73 174.84 134.60 176.00 124.22 180.22 C 113.85 184.45 102.80 186.84 93.07 191.07 C 83.34 195.30 70.18 196.50 62.70 203.70 C 55.21 210.89 41.78 211.05 37.00 220.00 Z"/>
</g>
<g fill="None" fill-opacity="0.0" stroke="#B9EDCE" stroke-opacity="1.00" stroke-width="0.3"><path d="
M 0.00 186.00 
L 0.00 191.00
C 3.60 195.20 2.03 201.59 8.00 201.00
C 1.89 200.39 3.47 191.32 1.00 187.00
C 3.27 186.73 5.20 184.68 7.00 184.00
C 4.58 184.62 2.30 185.10 0.00 186.00 Z"/>
</g>
<g fill="None" fill-opacity="0.0" stroke="#94869C" stroke-opacity="1.00" stroke-width="0.3"><path d="
M 58.00 195.00 
C 58.76 195.01 59.83 195.99 60.00 196.00
C 61.44 195.15 63.40 194.82 64.00 193.00
C 61.67 192.44 59.66 194.39 58.00 195.00 Z"/>
</g>
<g fill="None" fill-opacity="0.0" stroke="#E0D2E4" stroke-opacity="1.00" stroke-width="0.3"><path d="
M 185.00 267.00 
C 185.00 267.00 184.32 266.76 184.00 267.00
C 176.55 272.51 161.72 266.18 152.00 268.00 C 142.28 269.82 129.54 267.20 119.00 268.00 C 108.46 268.80 95.88 267.62 85.00 268.00 C 74.12 268.38 63.05 267.81 52.00 268.00 C 40.95 268.19 29.12 267.85 18.00 268.00
C 18.67 248.17 16.67 227.01 19.00 208.00
C 20.18 206.68 26.14 205.70 28.00 205.00
C 26.82 205.15 16.50 204.20 17.00 211.00 C 17.50 217.80 16.66 225.55 17.00 232.00 C 17.34 238.45 16.59 247.26 17.00 253.00 C 17.41 258.74 14.53 269.22 21.26 269.60 C 27.98 269.98 34.01 268.45 41.00 269.00 C 47.99 269.55 55.04 268.76 62.00 269.00 C 68.96 269.24 76.08 268.92 83.00 269.00 C 89.92 269.08 97.19 269.02 104.00 269.00 C 110.81 268.98 118.42 269.13 125.00 269.00 C 131.58 268.87 139.92 269.32 146.00 269.00 C 152.08 268.68 162.04 269.73 167.00 269.00 C 171.96 268.27 184.01 271.63 185.00 267.00 Z"/>
</g>
<g fill="None" fill-opacity="0.0" stroke="#7D658F" stroke-opacity="1.00" stroke-width="0.3"><path d="
M 184.00 267.00 
C 129.00 267.00 74.00 267.00 19.00 267.00
C 19.00 247.33 19.00 227.67 19.00 208.00
C 16.67 227.01 18.67 248.17 18.00 268.00
C 29.12 267.85 40.95 268.19 52.00 268.00 C 63.05 267.81 74.12 268.38 85.00 268.00 C 95.88 267.62 108.46 268.80 119.00 268.00 C 129.54 267.20 142.28 269.82 152.00 268.00 C 161.72 266.18 176.55 272.51 184.00 267.00 Z"/>
</g>
<g fill="None" fill-opacity="0.0" stroke="#BCA9C7" stroke-opacity="1.00" stroke-width="0.3"><path d="
M 174.00 250.00 
C 163.92 249.99 152.99 250.01 143.00 250.00 C 133.01 249.99 122.77 250.02 113.00 250.00 C 103.23 249.98 92.39 250.03 83.00 250.00 C 73.61 249.97 60.54 250.07 52.00 250.00 C 43.46 249.93 27.14 253.00 29.00 243.00 C 30.86 233.00 24.77 222.18 30.00 214.00
C 25.38 224.43 29.30 238.99 28.00 251.00
C 34.97 250.98 42.04 251.03 49.00 251.00 C 55.96 250.97 63.07 251.05 70.00 251.00 C 76.93 250.95 84.15 251.11 91.00 251.00 C 97.85 250.89 105.32 251.25 112.00 251.00 C 118.68 250.75 126.71 251.55 133.00 251.00 C 139.29 250.45 148.57 252.21 154.00 251.00 C 159.43 249.79 171.10 254.15 174.00 250.00 Z"/>
</g>
<g fill="None" fill-opacity="0.0" stroke="#876E8D" stroke-opacity="1.00" stroke-width="0.3"><path d="
M 166.00 242.00 
C 166.00 242.00 165.50 242.00 165.00 242.00
C 122.33 242.00 79.67 242.00 37.00 242.00
C 38.72 235.27 34.71 226.53 37.00 220.00
C 34.67 226.67 36.66 235.50 36.00 243.00
C 44.74 242.88 54.35 243.16 63.00 243.00 C 71.65 242.84 80.59 243.32 89.00 243.00 C 97.41 242.68 107.00 243.70 115.00 243.00 C 123.00 242.30 133.84 244.54 141.00 243.00 C 148.16 241.46 161.31 246.87 166.00 242.00 Z"/>
</g>
<g fill="#FAFAFA" fill-opacity="1.00" stroke="None">
<path d="
M 0.00 135.00 
C 11.70 130.76 23.63 126.83 36.00 124.00
C 45.26 121.88 53.83 117.17 63.07 115.07 C 72.32 112.98 81.70 107.39 91.01 106.01 C 100.32 104.63 108.91 104.22 118.22 100.22 C 127.53 96.22 136.79 94.32 146.02 91.02 C 155.25 87.73 164.18 84.21 173.22 81.22 C 182.27 78.24 190.88 73.93 199.00 72.00
L 199.00 0.00
L 22.00 0.00
C 27.34 3.95 37.04 1.55 45.00 2.00 C 52.96 2.45 61.72 1.86 70.00 2.00 C 78.28 2.14 87.57 2.04 96.00 2.00 C 104.43 1.96 112.46 2.27 121.00 2.00 C 129.54 1.73 137.21 2.67 146.00 2.00 C 154.79 1.33 162.82 3.46 172.00 2.00 C 181.18 0.54 188.14 3.37 186.00 13.00 C 183.86 22.63 187.65 29.78 186.00 38.00 C 184.35 46.22 188.60 56.74 185.22 63.22 C 181.85 69.70 171.54 66.08 166.98 69.98 C 162.41 73.88 151.56 73.96 151.00 74.00
C 149.41 74.56 147.42 75.05 146.00 76.00
C 145.73 76.18 145.23 76.74 145.00 77.00
C 143.02 79.23 139.75 79.10 137.00 80.00
C 143.71 69.87 158.85 64.65 170.00 58.00
C 168.96 54.54 172.62 46.62 167.00 47.00
C 171.12 42.53 168.89 39.14 170.00 32.00 C 171.11 24.86 168.58 20.53 161.00 22.00 C 153.42 23.47 149.27 20.90 142.00 22.00
C 141.23 33.49 163.50 22.17 166.00 29.00
C 167.64 35.58 167.14 49.39 163.00 53.00
C 146.39 67.48 127.50 73.63 106.93 80.93 C 86.35 88.22 62.78 97.04 40.00 98.00
C 39.40 98.03 37.30 99.96 36.00 99.00
C 36.00 91.33 36.00 83.67 36.00 76.00
C 34.08 76.38 31.94 75.71 30.00 76.00
C 30.00 85.33 30.00 94.67 30.00 104.00
C 36.67 104.00 43.33 104.00 50.00 104.00
C 50.50 104.00 51.50 103.97 52.00 104.00
C 57.03 102.48 63.62 100.59 69.00 102.00
C 64.11 106.54 54.95 109.76 49.00 109.00
C 42.05 111.57 35.01 113.66 28.00 116.00
C 25.54 117.37 21.76 121.90 17.00 120.00
C 17.25 106.54 16.67 92.39 17.00 79.00 C 17.33 65.61 16.36 51.13 17.00 38.00 C 17.64 24.87 14.29 10.56 20.00 0.00
L 0.00 0.00
L 0.00 135.00 Z"/>
</g>
<g fill="#E1D5E8" fill-opacity="1.00" stroke="None">
<path d="
M 28.00 116.00 
C 24.72 117.09 21.45 118.45 18.00 119.00
C 18.00 80.67 18.00 42.33 18.00 4.00
C 20.90 -0.14 32.58 4.20 38.00 3.00 C 43.42 1.80 52.73 3.52 59.00 3.00 C 65.27 2.48 73.36 3.20 80.00 3.00 C 86.64 2.80 94.24 3.01 101.00 3.00 C 107.76 2.99 115.28 2.82 122.00 3.00 C 128.72 3.18 136.51 2.52 143.00 3.00 C 149.49 3.48 158.08 1.89 164.00 3.00 C 169.92 4.11 180.05 0.05 184.00 4.00
C 187.76 7.76 184.17 18.38 185.00 24.00 C 185.83 29.62 185.07 39.06 185.00 45.00 C 184.93 50.94 187.26 61.22 182.00 64.00
C 173.13 68.68 160.63 70.60 151.00 74.00
C 151.56 73.96 162.41 73.88 166.98 69.98 C 171.54 66.08 181.85 69.70 185.22 63.22 C 188.60 56.74 184.35 46.22 186.00 38.00 C 187.65 29.78 183.86 22.63 186.00 13.00 C 188.14 3.37 181.18 0.54 172.00 2.00 C 162.82 3.46 154.79 1.33 146.00 2.00 C 137.21 2.67 129.54 1.73 121.00 2.00 C 112.46 2.27 104.43 1.96 96.00 2.00 C 87.57 2.04 78.28 2.14 70.00 2.00 C 61.72 1.86 52.96 2.45 45.00 2.00 C 37.04 1.55 27.34 3.95 22.00 0.00
L 20.00 0.00
C 14.29 10.56 17.64 24.87 17.00 38.00 C 16.36 51.13 17.33 65.61 17.00 79.00 C 16.67 92.39 17.25 106.54 17.00 120.00
C 21.76 121.90 25.54 117.37 28.00 116.00 Z"/>
</g>
<g fill="#9583A4" fill-opacity="1.00" stroke="None">
<path d="
M 18.00 4.00 
C 73.33 4.00 128.67 4.00 184.00 4.00
C 180.05 0.05 169.92 4.11 164.00 3.00 C 158.08 1.89 149.49 3.48 143.00 3.00 C 136.51 2.52 128.72 3.18 122.00 3.00 C 115.28 2.82 107.76 2.99 101.00 3.00 C 94.24 3.01 86.64 2.80 80.00 3.00 C 73.36 3.20 65.27 2.48 59.00 3.00 C 52.73 3.52 43.42 1.80 38.00 3.00 C 32.58 4.20 20.90 -0.14 18.00 4.00 Z"/>
</g>
<g fill="#613F79" fill-opacity="1.00" stroke="None">
<path d="
M 28.00 116.00 
C 35.01 113.66 42.05 111.57 49.00 109.00
C 51.28 108.16 53.68 107.74 56.00 107.00
C 56.65 106.54 57.64 105.84 58.00 105.00
C 53.39 104.28 49.49 106.16 45.00 106.00
C 41.58 106.39 38.42 106.44 35.00 107.00
C 33.27 107.28 30.41 108.85 28.00 108.00
C 27.53 94.37 28.62 82.83 28.00 69.00 C 27.38 55.17 29.20 44.60 28.00 30.00 C 26.80 15.40 44.79 20.27 57.00 20.00 C 69.21 19.73 83.39 20.03 96.00 20.00 C 108.61 19.97 122.25 19.80 135.00 20.00 C 147.75 20.20 162.06 19.02 174.00 21.00
C 178.34 25.34 173.33 35.78 175.00 42.00 C 176.67 48.22 175.39 55.66 170.00 59.00
C 161.69 64.14 153.28 68.87 145.00 74.00
C 143.41 76.53 145.39 74.76 146.00 76.00
C 147.42 75.05 149.41 74.56 151.00 74.00
C 160.63 70.60 173.13 68.68 182.00 64.00
C 188.46 59.19 182.15 43.17 184.00 35.00 C 185.85 26.83 182.61 12.71 184.00 4.00
C 128.67 4.00 73.33 4.00 18.00 4.00
C 18.00 42.33 18.00 80.67 18.00 119.00
C 21.45 118.45 24.72 117.09 28.00 116.00
M 114.00 14.00 
C 110.89 15.45 102.11 13.43 99.00 14.00 C 95.89 14.57 86.21 15.20 87.00 11.00
C 87.99 5.76 100.92 11.06 104.00 9.00 C 107.08 6.94 121.35 10.58 114.00 14.00 Z"/>
</g>
<g fill="#B4A4BE" fill-opacity="1.00" stroke="None">
<path d="
M 182.00 64.00 
C 187.26 61.22 184.93 50.94 185.00 45.00 C 185.07 39.06 185.83 29.62 185.00 24.00 C 184.17 18.38 187.76 7.76 184.00 4.00
C 182.61 12.71 185.85 26.83 184.00 35.00 C 182.15 43.17 188.46 59.19 182.00 64.00 Z"/>
</g>
<g fill="#9D8AAE" fill-opacity="1.00" stroke="None">
<path d="
M 87.00 11.00 
C 88.53 7.85 96.59 10.83 100.00 10.00 C 103.41 9.17 111.20 10.62 115.00 10.00
C 115.41 11.56 114.54 12.69 114.00 14.00
C 121.35 10.58 107.08 6.94 104.00 9.00 C 100.92 11.06 87.99 5.76 87.00 11.00 Z"/>
</g>
<g fill="#ECE3F2" fill-opacity="1.00" stroke="None">
<path d="
M 87.00 11.00 
C 86.21 15.20 95.89 14.57 99.00 14.00 C 102.11 13.43 110.89 15.45 114.00 14.00
C 114.54 12.69 115.41 11.56 115.00 10.00
C 111.20 10.62 103.41 9.17 100.00 10.00 C 96.59 10.83 88.53 7.85 87.00 11.00 Z"/>
</g>
<g fill="#AA94B3" fill-opacity="1.00" stroke="None">
<path d="
M 35.00 107.00 
C 33.00 106.99 31.00 107.01 29.00 107.00
C 29.00 78.33 29.00 49.67 29.00 21.00
C 77.33 21.00 125.67 21.00 174.00 21.00
C 162.06 19.02 147.75 20.20 135.00 20.00 C 122.25 19.80 108.61 19.97 96.00 20.00 C 83.39 20.03 69.21 19.73 57.00 20.00 C 44.79 20.27 26.80 15.40 28.00 30.00 C 29.20 44.60 27.38 55.17 28.00 69.00 C 28.62 82.83 27.53 94.37 28.00 108.00
C 30.41 108.85 33.27 107.28 35.00 107.00 Z"/>
</g>
<g fill="#EEE5F2" fill-opacity="1.00" stroke="None">
<path d="
M 35.00 107.00 
C 38.42 106.44 41.58 106.39 45.00 106.00
C 46.22 105.74 48.82 104.34 50.00 104.00
C 43.33 104.00 36.67 104.00 30.00 104.00
C 30.00 94.67 30.00 85.33 30.00 76.00
C 31.94 75.71 34.08 76.38 36.00 76.00
C 36.00 75.50 36.00 74.50 36.00 74.00
C 34.08 73.62 31.94 74.29 30.00 74.00
C 30.00 65.00 30.00 56.00 30.00 47.00
C 32.00 47.00 34.00 47.00 36.00 47.00
C 36.00 46.00 36.00 45.00 36.00 44.00
C 34.00 44.00 32.00 44.00 30.00 44.00
C 30.00 36.67 30.00 29.33 30.00 22.00
C 36.67 22.00 43.33 22.00 50.00 22.00
C 52.14 31.16 39.76 24.48 36.00 28.00
C 43.22 24.79 53.99 29.43 62.00 28.00 C 70.01 26.57 79.64 28.60 88.00 28.00 C 96.36 27.40 105.50 28.18 114.00 28.00 C 122.50 27.82 131.47 27.88 140.00 28.00 C 148.53 28.12 158.30 27.07 166.00 29.00
C 163.50 22.17 141.23 33.49 142.00 22.00
C 149.27 20.90 153.42 23.47 161.00 22.00 C 168.58 20.53 171.11 24.86 170.00 32.00 C 168.89 39.14 171.12 42.53 167.00 47.00
C 172.62 46.62 168.96 54.54 170.00 58.00
C 158.85 64.65 143.71 69.87 137.00 80.00
C 139.75 79.10 143.02 79.23 145.00 77.00
C 143.41 77.50 141.60 77.36 140.00 78.00
C 140.98 75.99 143.36 75.36 145.00 74.00
C 153.28 68.87 161.69 64.14 170.00 59.00
C 171.26 58.02 172.07 56.21 174.00 56.00
C 174.00 44.33 174.00 32.67 174.00 21.00
C 125.67 21.00 77.33 21.00 29.00 21.00
C 29.00 49.67 29.00 78.33 29.00 107.00
C 31.00 107.01 33.00 106.99 35.00 107.00
M 80.00 22.00 
C 81.55 29.17 74.05 26.75 69.00 27.00 C 63.95 27.25 57.20 26.82 52.00 27.00
C 50.45 19.83 57.95 22.25 63.00 22.00 C 68.05 21.75 74.80 22.18 80.00 22.00
M 110.00 22.00 
C 111.55 29.17 104.05 26.75 99.00 27.00 C 93.95 27.25 87.20 26.82 82.00 27.00
C 80.45 19.83 87.95 22.25 93.00 22.00 C 98.05 21.75 104.80 22.18 110.00 22.00
M 140.00 22.00 
C 141.55 29.17 134.05 26.75 129.00 27.00 C 123.96 27.25 117.20 26.82 112.00 27.00
C 110.45 19.83 117.95 22.25 123.00 22.00 C 128.05 21.75 134.80 22.18 140.00 22.00 Z"/>
</g>
<g fill="#846A96" fill-opacity="1.00" stroke="None">
<path d="
M 170.00 59.00 
C 175.39 55.66 176.67 48.22 175.00 42.00 C 173.33 35.78 178.34 25.34 174.00 21.00
C 174.00 32.67 174.00 44.33 174.00 56.00
C 172.07 56.21 171.26 58.02 170.00 59.00 Z"/>
</g>
<g fill="#FEFDFE" fill-opacity="1.00" stroke="None">
<path d="
M 36.00 44.00 
C 36.00 39.33 36.00 34.67 36.00 30.00
C 36.00 29.50 35.77 28.35 36.00 28.00
C 39.76 24.48 52.14 31.16 50.00 22.00
C 43.33 22.00 36.67 22.00 30.00 22.00
C 30.00 29.33 30.00 36.67 30.00 44.00
C 32.00 44.00 34.00 44.00 36.00 44.00 Z"/>
</g>
<g fill="#FEFDFE" fill-opacity="1.00" stroke="None">
<path d="
M 80.00 22.00 
C 74.80 22.18 68.05 21.75 63.00 22.00 C 57.95 22.25 50.45 19.83 52.00 27.00
C 57.20 26.82 63.95 27.25 69.00 27.00 C 74.05 26.75 81.55 29.17 80.00 22.00 Z"/>
</g>
<g fill="#FEFDFE" fill-opacity="1.00" stroke="None">
<path d="
M 110.00 22.00 
C 104.80 22.18 98.05 21.75 93.00 22.00 C 87.95 22.25 80.45 19.83 82.00 27.00
C 87.20 26.82 93.95 27.25 99.00 27.00 C 104.05 26.75 111.55 29.17 110.00 22.00 Z"/>
</g>
<g fill="#FEFDFE" fill-opacity="1.00" stroke="None">
<path d="
M 140.00 22.00 
C 134.80 22.18 128.05 21.75 123.00 22.00 C 117.95 22.25 110.45 19.83 112.00 27.00
C 117.20 26.82 123.96 27.25 129.00 27.00 C 134.05 26.75 141.55 29.17 140.00 22.00 Z"/>
</g>
<g fill="#AA91B4" fill-opacity="1.00" stroke="None">
<path d="
M 36.00 30.00 
C 36.34 30.23 37.00 30.00 37.00 30.00
C 44.27 24.62 58.46 30.72 68.00 29.00 C 77.54 27.28 90.77 29.83 101.00 29.00 C 111.23 28.17 122.45 29.42 133.00 29.00 C 143.55 28.58 155.34 29.31 166.00 29.00
C 158.30 27.07 148.53 28.12 140.00 28.00 C 131.47 27.88 122.50 27.82 114.00 28.00 C 105.50 28.18 96.36 27.40 88.00 28.00 C 79.64 28.60 70.01 26.57 62.00 28.00 C 53.99 29.43 43.22 24.79 36.00 28.00
C 35.77 28.35 36.00 29.50 36.00 30.00 Z"/>
</g>
<g fill="#502B5C" fill-opacity="1.00" stroke="None">
<path d="
M 37.00 30.00 
C 37.23 30.16 37.00 31.50 37.00 32.00
C 48.01 25.91 64.52 31.47 78.00 30.00 C 91.48 28.53 107.00 30.75 121.00 30.00 C 135.00 29.25 150.83 30.56 165.00 30.00
C 163.98 37.54 167.23 46.53 163.00 53.00
C 167.14 49.39 167.64 35.58 166.00 29.00
C 155.34 29.31 143.55 28.58 133.00 29.00 C 122.45 29.42 111.23 28.17 101.00 29.00 C 90.77 29.83 77.54 27.28 68.00 29.00 C 58.46 30.72 44.27 24.62 37.00 30.00 Z"/>
</g>
<g fill="#896F93" fill-opacity="1.00" stroke="None">
<path d="
M 36.00 44.00 
C 36.00 45.00 36.00 46.00 36.00 47.00
C 36.00 56.00 36.00 65.00 36.00 74.00
C 36.00 74.50 36.00 75.50 36.00 76.00
C 36.00 83.67 36.00 91.33 36.00 99.00
C 37.30 99.96 39.40 98.03 40.00 98.00
C 39.07 97.74 37.94 98.20 37.00 98.00
C 37.00 76.00 37.00 54.00 37.00 32.00
C 37.00 31.50 37.23 30.16 37.00 30.00
C 37.00 30.00 36.34 30.23 36.00 30.00
C 36.00 34.67 36.00 39.33 36.00 44.00 Z"/>
</g>
<g fill="#400D4E" fill-opacity="1.00" stroke="None">
<path d="
M 37.00 32.00 
C 37.00 54.00 37.00 76.00 37.00 98.00
C 37.94 98.20 39.07 97.74 40.00 98.00
C 62.78 97.04 86.35 88.22 106.93 80.93 C 127.50 73.63 146.39 67.48 163.00 53.00
C 167.23 46.53 163.98 37.54 165.00 30.00
C 150.83 30.56 135.00 29.25 121.00 30.00 C 107.00 30.75 91.48 28.53 78.00 30.00 C 64.52 31.47 48.01 25.91 37.00 32.00 Z"/>
</g>
<g fill="#FEFDFE" fill-opacity="1.00" stroke="None">
<path d="
M 36.00 74.00 
C 36.00 65.00 36.00 56.00 36.00 47.00
C 34.00 47.00 32.00 47.00 30.00 47.00
C 30.00 56.00 30.00 65.00 30.00 74.00
C 31.94 74.29 34.08 73.62 36.00 74.00 Z"/>
</g>
<g fill="#58C585" fill-opacity="1.00" stroke="None">
<path d="
M 36.00 124.00 
C 24.74 128.10 12.97 133.01 1.00 136.00
C 2.82 140.90 2.51 150.80 10.00 150.00
C 25.53 144.48 41.31 139.61 57.07 134.07 C 72.83 128.54 89.65 124.40 102.97 115.97 C 116.29 107.55 133.87 104.12 149.22 98.22 C 164.58 92.32 182.43 86.38 199.00 84.00
L 199.00 72.00
C 190.88 73.93 182.27 78.24 173.22 81.22 C 164.18 84.21 155.25 87.73 146.02 91.02 C 136.79 94.32 127.53 96.22 118.22 100.22 C 108.91 104.22 100.32 104.63 91.01 106.01 C 81.70 107.39 72.32 112.98 63.07 115.07 C 53.83 117.17 45.26 121.88 36.00 124.00 Z"/>
</g>
<g fill="#90849A" fill-opacity="1.00" stroke="None">
<path d="
M 145.00 77.00 
C 145.23 76.74 145.73 76.18 146.00 76.00
C 145.39 74.76 143.41 76.53 145.00 74.00
C 143.36 75.36 140.98 75.99 140.00 78.00
C 141.60 77.36 143.41 77.50 145.00 77.00 Z"/>
</g>
<g fill="#F8FBF9" fill-opacity="1.00" stroke="None">
<path d="
M 10.00 150.00 
C 2.79 152.56 2.58 148.92 0.00 142.00
L 0.00 186.00
C 2.30 185.10 4.58 184.62 7.00 184.00
C 15.19 181.91 23.04 178.68 31.08 176.08 C 39.12 173.48 46.91 170.38 55.07 168.07 C 63.24 165.77 71.01 162.88 79.02 160.02 C 87.04 157.17 94.73 154.21 103.02 152.02 C 111.32 149.84 118.51 145.06 126.74 142.74 C 134.98 140.43 142.18 136.58 150.74 134.74 C 159.31 132.90 166.93 129.80 169.92 121.92 C 172.91 114.04 186.54 110.92 193.22 116.78 C 199.91 122.63 179.82 120.55 180.01 130.01 C 180.20 139.47 191.12 141.01 199.00 136.00
L 199.00 84.00
C 182.43 86.38 164.58 92.32 149.22 98.22 C 133.87 104.12 116.29 107.55 102.97 115.97 C 89.65 124.40 72.83 128.54 57.07 134.07 C 41.31 139.61 25.53 144.48 10.00 150.00 Z"/>
</g>
<g fill="#E8DDEE" fill-opacity="1.00" stroke="None">
<path d="
M 52.00 104.00 
C 56.69 104.33 62.02 101.46 66.00 104.00
C 62.53 104.53 59.36 106.03 56.00 107.00
C 53.68 107.74 51.28 108.16 49.00 109.00
C 54.95 109.76 64.11 106.54 69.00 102.00
C 63.62 100.59 57.03 102.48 52.00 104.00 Z"/>
</g>
<g fill="#9C8DA8" fill-opacity="1.00" stroke="None">
<path d="
M 52.00 104.00 
C 51.50 103.97 50.50 104.00 50.00 104.00
C 48.82 104.34 46.22 105.74 45.00 106.00
C 49.49 106.16 53.39 104.28 58.00 105.00
C 57.64 105.84 56.65 106.54 56.00 107.00
C 59.36 106.03 62.53 104.53 66.00 104.00
C 62.02 101.46 56.69 104.33 52.00 104.00 Z"/>
</g>
<g fill="#57C584" fill-opacity="1.00" stroke="None">
<path d="
M 7.00 184.00 
C 5.20 184.68 3.27 186.73 1.00 187.00
C 3.47 191.32 1.89 200.39 8.00 201.00
C 21.37 199.67 33.28 191.91 46.02 188.02 C 58.77 184.14 71.49 179.68 84.22 175.22 C 96.95 170.76 110.33 166.72 123.07 162.07 C 135.82 157.43 148.25 153.93 161.07 149.07 C 173.89 144.22 187.72 155.49 199.00 143.00
L 199.00 136.00
C 191.12 141.01 180.20 139.47 180.01 130.01 C 179.82 120.55 199.91 122.63 193.22 116.78 C 186.54 110.92 172.91 114.04 169.92 121.92 C 166.93 129.80 159.31 132.90 150.74 134.74 C 142.18 136.58 134.98 140.43 126.74 142.74 C 118.51 145.06 111.32 149.84 103.02 152.02 C 94.73 154.21 87.04 157.17 79.02 160.02 C 71.01 162.88 63.24 165.77 55.07 168.07 C 46.91 170.38 39.12 173.48 31.08 176.08 C 23.04 178.68 15.19 181.91 7.00 184.00 Z"/>
</g>
<g fill="#CCF2DB" fill-opacity="1.00" stroke="None">
<path d="
M 0.00 135.00 
L 0.00 142.00
C 2.58 148.92 2.79 152.56 10.00 150.00
C 2.51 150.80 2.82 140.90 1.00 136.00
C 12.97 133.01 24.74 128.10 36.00 124.00
C 23.63 126.83 11.70 130.76 0.00 135.00 Z"/>
</g>
<g fill="#F9F8FA" fill-opacity="1.00" stroke="None">
<path d="
M 8.00 201.00 
C 2.03 201.59 3.60 195.20 0.00 191.00
L 0.00 274.00
L 199.00 274.00
L 199.00 143.00
C 187.72 155.49 173.89 144.22 161.07 149.07 C 148.25 153.93 135.82 157.43 123.07 162.07 C 110.33 166.72 96.95 170.76 84.22 175.22 C 71.49 179.68 58.77 184.14 46.02 188.02 C 33.28 191.91 21.37 199.67 8.00 201.00
M 185.00 267.00 
C 184.01 271.63 171.96 268.27 167.00 269.00 C 162.04 269.73 152.08 268.68 146.00 269.00 C 139.92 269.32 131.58 268.87 125.00 269.00 C 118.42 269.13 110.81 268.98 104.00 269.00 C 97.19 269.02 89.92 269.08 83.00 269.00 C 76.08 268.92 68.96 269.24 62.00 269.00 C 55.04 268.76 47.99 269.55 41.00 269.00 C 34.01 268.45 27.98 269.98 21.26 269.60 C 14.53 269.22 17.41 258.74 17.00 253.00 C 16.59 247.26 17.34 238.45 17.00 232.00 C 16.66 225.55 17.50 217.80 17.00 211.00 C 16.50 204.20 26.82 205.15 28.00 205.00
C 37.88 201.26 48.11 198.65 58.00 195.00
C 59.66 194.39 61.67 192.44 64.00 193.00
C 63.40 194.82 61.44 195.15 60.00 196.00
C 51.20 201.58 36.94 206.27 30.00 214.00
C 24.77 222.18 30.86 233.00 29.00 243.00 C 27.14 253.00 43.46 249.93 52.00 250.00 C 60.54 250.07 73.61 249.97 83.00 250.00 C 92.39 250.03 103.23 249.98 113.00 250.00 C 122.77 250.02 133.01 249.99 143.00 250.00 C 152.99 250.01 163.92 249.99 174.00 250.00
C 177.36 245.20 172.55 235.20 174.00 229.00 C 175.45 222.80 173.33 213.80 174.00 207.00 C 174.67 200.20 173.65 192.06 174.00 185.00 C 174.35 177.94 173.74 170.13 174.00 163.00
C 166.04 164.10 158.30 166.18 150.00 166.00
C 146.85 166.38 142.67 167.53 139.00 168.00
C 138.37 168.08 135.53 170.48 135.00 168.00
C 139.54 167.62 140.68 162.13 146.00 164.00
C 146.49 164.06 147.54 164.13 148.00 164.00
C 158.92 160.98 169.75 154.61 181.00 153.00
C 181.75 152.89 183.58 151.10 185.00 152.00
C 185.00 190.33 185.00 228.67 185.00 267.00
M 166.00 242.00 
C 161.31 246.87 148.16 241.46 141.00 243.00 C 133.84 244.54 123.00 242.30 115.00 243.00 C 107.00 243.70 97.41 242.68 89.00 243.00 C 80.59 243.32 71.65 242.84 63.00 243.00 C 54.35 243.16 44.74 242.88 36.00 243.00
C 36.66 235.50 34.67 226.67 37.00 220.00
C 41.78 211.05 55.21 210.89 62.70 203.70 C 70.18 196.50 83.34 195.30 93.07 191.07 C 102.80 186.84 113.85 184.45 124.22 180.22 C 134.60 176.00 148.73 174.84 160.00 173.00
C 162.09 172.66 163.84 172.14 166.00 172.00
C 166.00 195.33 166.00 218.67 166.00 242.00 Z"/>
</g>
<g fill="#B3A3BD" fill-opacity="1.00" stroke="None">
<path d="
M 181.00 153.00 
C 181.96 153.19 183.03 152.85 184.00 153.00
C 184.00 191.00 184.00 229.00 184.00 267.00
C 184.32 266.76 185.00 267.00 185.00 267.00
C 185.00 228.67 185.00 190.33 185.00 152.00
C 183.58 151.10 181.75 152.89 181.00 153.00 Z"/>
</g>
<g fill="#603E79" fill-opacity="1.00" stroke="None">
<path d="
M 148.00 164.00 
C 147.37 164.86 146.35 164.86 146.00 166.00
C 147.33 166.00 148.67 166.00 150.00 166.00
C 158.30 166.18 166.04 164.10 174.00 163.00
C 173.74 170.13 174.35 177.94 174.00 185.00 C 173.65 192.06 174.67 200.20 174.00 207.00 C 173.33 213.80 175.45 222.80 174.00 229.00 C 172.55 235.20 177.36 245.20 174.00 250.00
C 171.10 254.15 159.43 249.79 154.00 251.00 C 148.57 252.21 139.29 250.45 133.00 251.00 C 126.71 251.55 118.68 250.75 112.00 251.00 C 105.32 251.25 97.85 250.89 91.00 251.00 C 84.15 251.11 76.93 250.95 70.00 251.00 C 63.07 251.05 55.96 250.97 49.00 251.00 C 42.04 251.03 34.97 250.98 28.00 251.00
C 29.30 238.99 25.38 224.43 30.00 214.00
C 36.94 206.27 51.20 201.58 60.00 196.00
C 59.83 195.99 58.76 195.01 58.00 195.00
C 48.11 198.65 37.88 201.26 28.00 205.00
C 26.14 205.70 20.18 206.68 19.00 208.00
C 19.00 227.67 19.00 247.33 19.00 267.00
C 74.00 267.00 129.00 267.00 184.00 267.00
C 184.00 229.00 184.00 191.00 184.00 153.00
C 183.03 152.85 181.96 153.19 181.00 153.00
C 169.75 154.61 158.92 160.98 148.00 164.00 Z"/>
</g>
<g fill="#CFC6D7" fill-opacity="1.00" stroke="None">
<path d="
M 139.00 168.00 
C 140.95 167.21 144.11 165.28 146.00 164.00
C 140.68 162.13 139.54 167.62 135.00 168.00
C 135.53 170.48 138.37 168.08 139.00 168.00 Z"/>
</g>
<g fill="#7D6D8A" fill-opacity="1.00" stroke="None">
<path d="
M 139.00 168.00 
C 142.67 167.53 146.85 166.38 150.00 166.00
C 148.67 166.00 147.33 166.00 146.00 166.00
C 146.35 164.86 147.37 164.86 148.00 164.00
C 147.54 164.13 146.49 164.06 146.00 164.00
C 144.11 165.28 140.95 167.21 139.00 168.00 Z"/>
</g>
<g fill="#5C3A65" fill-opacity="1.00" stroke="None">
<path d="
M 160.00 173.00 
C 160.97 173.08 163.34 174.96 165.00 174.00
C 165.00 196.67 165.00 219.33 165.00 242.00
C 165.50 242.00 166.00 242.00 166.00 242.00
C 166.00 218.67 166.00 195.33 166.00 172.00
C 163.84 172.14 162.09 172.66 160.00 173.00 Z"/>
</g>
<g fill="#400D4E" fill-opacity="1.00" stroke="None">
<path d="
M 37.00 220.00 
C 34.71 226.53 38.72 235.27 37.00 242.00
C 79.67 242.00 122.33 242.00 165.00 242.00
C 165.00 219.33 165.00 196.67 165.00 174.00
C 163.34 174.96 160.97 173.08 160.00 173.00
C 148.73 174.84 134.60 176.00 124.22 180.22 C 113.85 184.45 102.80 186.84 93.07 191.07 C 83.34 195.30 70.18 196.50 62.70 203.70 C 55.21 210.89 41.78 211.05 37.00 220.00 Z"/>
</g>
<g fill="#B9EDCE" fill-opacity="1.00" stroke="None">
<path d="
M 0.00 186.00 
L 0.00 191.00
C 3.60 195.20 2.03 201.59 8.00 201.00
C 1.89 200.39 3.47 191.32 1.00 187.00
C 3.27 186.73 5.20 184.68 7.00 184.00
C 4.58 184.62 2.30 185.10 0.00 186.00 Z"/>
</g>
<g fill="#94869C" fill-opacity="1.00" stroke="None">
<path d="
M 58.00 195.00 
C 58.76 195.01 59.83 195.99 60.00 196.00
C 61.44 195.15 63.40 194.82 64.00 193.00
C 61.67 192.44 59.66 194.39 58.00 195.00 Z"/>
</g>
<g fill="#E0D2E4" fill-opacity="1.00" stroke="None">
<path d="
M 185.00 267.00 
C 185.00 267.00 184.32 266.76 184.00 267.00
C 176.55 272.51 161.72 266.18 152.00 268.00 C 142.28 269.82 129.54 267.20 119.00 268.00 C 108.46 268.80 95.88 267.62 85.00 268.00 C 74.12 268.38 63.05 267.81 52.00 268.00 C 40.95 268.19 29.12 267.85 18.00 268.00
C 18.67 248.17 16.67 227.01 19.00 208.00
C 20.18 206.68 26.14 205.70 28.00 205.00
C 26.82 205.15 16.50 204.20 17.00 211.00 C 17.50 217.80 16.66 225.55 17.00 232.00 C 17.34 238.45 16.59 247.26 17.00 253.00 C 17.41 258.74 14.53 269.22 21.26 269.60 C 27.98 269.98 34.01 268.45 41.00 269.00 C 47.99 269.55 55.04 268.76 62.00 269.00 C 68.96 269.24 76.08 268.92 83.00 269.00 C 89.92 269.08 97.19 269.02 104.00 269.00 C 110.81 268.98 118.42 269.13 125.00 269.00 C 131.58 268.87 139.92 269.32 146.00 269.00 C 152.08 268.68 162.04 269.73 167.00 269.00 C 171.96 268.27 184.01 271.63 185.00 267.00 Z"/>
</g>
<g fill="#7D658F" fill-opacity="1.00" stroke="None">
<path d="
M 184.00 267.00 
C 129.00 267.00 74.00 267.00 19.00 267.00
C 19.00 247.33 19.00 227.67 19.00 208.00
C 16.67 227.01 18.67 248.17 18.00 268.00
C 29.12 267.85 40.95 268.19 52.00 268.00 C 63.05 267.81 74.12 268.38 85.00 268.00 C 95.88 267.62 108.46 268.80 119.00 268.00 C 129.54 267.20 142.28 269.82 152.00 268.00 C 161.72 266.18 176.55 272.51 184.00 267.00 Z"/>
</g>
<g fill="#BCA9C7" fill-opacity="1.00" stroke="None">
<path d="
M 174.00 250.00 
C 163.92 249.99 152.99 250.01 143.00 250.00 C 133.01 249.99 122.77 250.02 113.00 250.00 C 103.23 249.98 92.39 250.03 83.00 250.00 C 73.61 249.97 60.54 250.07 52.00 250.00 C 43.46 249.93 27.14 253.00 29.00 243.00 C 30.86 233.00 24.77 222.18 30.00 214.00
C 25.38 224.43 29.30 238.99 28.00 251.00
C 34.97 250.98 42.04 251.03 49.00 251.00 C 55.96 250.97 63.07 251.05 70.00 251.00 C 76.93 250.95 84.15 251.11 91.00 251.00 C 97.85 250.89 105.32 251.25 112.00 251.00 C 118.68 250.75 126.71 251.55 133.00 251.00 C 139.29 250.45 148.57 252.21 154.00 251.00 C 159.43 249.79 171.10 254.15 174.00 250.00 Z"/>
</g>
<g fill="#876E8D" fill-opacity="1.00" stroke="None">
<path d="
M 166.00 242.00 
C 166.00 242.00 165.50 242.00 165.00 242.00
C 122.33 242.00 79.67 242.00 37.00 242.00
C 38.72 235.27 34.71 226.53 37.00 220.00
C 34.67 226.67 36.66 235.50 36.00 243.00
C 44.74 242.88 54.35 243.16 63.00 243.00 C 71.65 242.84 80.59 243.32 89.00 243.00 C 97.41 242.68 107.00 243.70 115.00 243.00 C 123.00 242.30 133.84 244.54 141.00 243.00 C 148.16 241.46 161.31 246.87 166.00 242.00 Z"/>
</g>
</svg>